{
	"asset":{
		"generator":"Khronos glTF Blender I/O v4.3.47",
		"version":"2.0"
	},
	"extensionsUsed":[
		"KHR_materials_unlit"
	],
	"scene":0,
	"scenes":[
		{
			"name":"Scene",
			"nodes":[
				0
			]
		}
	],
	"nodes":[
		{
			"mesh":0,
			"name":"Ground"
		}
	],
	"materials":[
		{
			"doubleSided":true,
			"extensions":{
				"KHR_materials_unlit":{}
			},
			"name":"Grass",
			"pbrMetallicRoughness":{
				"baseColorTexture":{
					"index":0
				},
				"metallicFactor":0,
				"roughnessFactor":0.9
			}
		},
		{
			"doubleSided":true,
			"extensions":{
				"KHR_materials_unlit":{}
			},
			"name":"Grass2Mud",
			"pbrMetallicRoughness":{
				"baseColorTexture":{
					"index":1
				},
				"metallicFactor":0,
				"roughnessFactor":0.9
			}
		},
		{
			"doubleSided":true,
			"extensions":{
				"KHR_materials_unlit":{}
			},
			"name":"Mud",
			"pbrMetallicRoughness":{
				"baseColorTexture":{
					"index":2
				},
				"metallicFactor":0,
				"roughnessFactor":0.9
			}
		},
		{
			"doubleSided":true,
			"extensions":{
				"KHR_materials_unlit":{}
			},
			"name":"Dirt",
			"pbrMetallicRoughness":{
				"baseColorTexture":{
					"index":3
				},
				"metallicFactor":0,
				"roughnessFactor":0.9
			}
		},
		{
			"doubleSided":true,
			"extensions":{
				"KHR_materials_unlit":{}
			},
			"name":"Sand",
			"pbrMetallicRoughness":{
				"baseColorTexture":{
					"index":4
				},
				"metallicFactor":0,
				"roughnessFactor":0.9
			}
		},
		{
			"doubleSided":true,
			"extensions":{
				"KHR_materials_unlit":{}
			},
			"name":"Grass2Dirt",
			"pbrMetallicRoughness":{
				"baseColorTexture":{
					"index":5
				},
				"metallicFactor":0,
				"roughnessFactor":0.9
			}
		}
	],
	"meshes":[
		{
			"name":"Plane",
			"primitives":[
				{
					"attributes":{
						"POSITION":0,
						"NORMAL":1,
						"TEXCOORD_0":2,
						"COLOR_0":3,
						"COLOR_1":4
					},
					"indices":5,
					"material":0
				},
				{
					"attributes":{
						"POSITION":6,
						"NORMAL":7,
						"TEXCOORD_0":8,
						"COLOR_0":9,
						"COLOR_1":10
					},
					"indices":11,
					"material":1
				},
				{
					"attributes":{
						"POSITION":12,
						"NORMAL":13,
						"TEXCOORD_0":14,
						"COLOR_0":15,
						"COLOR_1":16
					},
					"indices":17,
					"material":2
				},
				{
					"attributes":{
						"POSITION":18,
						"NORMAL":19,
						"TEXCOORD_0":20,
						"COLOR_0":21,
						"COLOR_1":22
					},
					"indices":23,
					"material":3
				},
				{
					"attributes":{
						"POSITION":24,
						"NORMAL":25,
						"TEXCOORD_0":26,
						"COLOR_0":27,
						"COLOR_1":28
					},
					"indices":29,
					"material":4
				},
				{
					"attributes":{
						"POSITION":30,
						"NORMAL":31,
						"TEXCOORD_0":32,
						"COLOR_0":33,
						"COLOR_1":34
					},
					"indices":35,
					"material":5
				}
			]
		}
	],
	"textures":[
		{
			"sampler":0,
			"source":0
		},
		{
			"sampler":0,
			"source":1
		},
		{
			"sampler":0,
			"source":2
		},
		{
			"sampler":0,
			"source":3
		},
		{
			"sampler":0,
			"source":4
		},
		{
			"sampler":0,
			"source":5
		}
	],
	"images":[
		{
			"mimeType":"image/png",
			"name":"grass.ci4.png",
			"uri":"grass.ci4.png"
		},
		{
			"mimeType":"image/png",
			"name":"grass2mud.ci4.png",
			"uri":"grass2mud.ci4.png"
		},
		{
			"mimeType":"image/png",
			"name":"mud.ci4.png",
			"uri":"mud.ci4.png"
		},
		{
			"mimeType":"image/png",
			"name":"dirt.ci4.png",
			"uri":"dirt.ci4.png"
		},
		{
			"mimeType":"image/png",
			"name":"sand.ci4.png",
			"uri":"sand.ci4.png"
		},
		{
			"mimeType":"image/png",
			"name":"grass2dirt.ci4.png",
			"uri":"grass2dirt.ci4.png"
		}
	],
	"accessors":[
		{
			"bufferView":0,
			"componentType":5126,
			"count":374,
			"max":[
				22.226531982421875,
				5.093461990356445,
				19.889968872070312
			],
			"min":[
				-19.634557723999023,
				-0.6029825806617737,
				-19.68828773498535
			],
			"type":"VEC3"
		},
		{
			"bufferView":1,
			"componentType":5126,
			"count":374,
			"type":"VEC3"
		},
		{
			"bufferView":2,
			"componentType":5126,
			"count":374,
			"type":"VEC2"
		},
		{
			"bufferView":3,
			"componentType":5121,
			"count":374,
			"normalized":true,
			"type":"VEC4"
		},
		{
			"bufferView":4,
			"componentType":5123,
			"count":374,
			"normalized":true,
			"type":"VEC4"
		},
		{
			"bufferView":5,
			"componentType":5123,
			"count":567,
			"type":"SCALAR"
		},
		{
			"bufferView":6,
			"componentType":5126,
			"count":64,
			"max":[
				6.892395973205566,
				1.829439640045166,
				9.1638765335083
			],
			"min":[
				-5.372737884521484,
				-1,
				-1.145010232925415
			],
			"type":"VEC3"
		},
		{
			"bufferView":7,
			"componentType":5126,
			"count":64,
			"type":"VEC3"
		},
		{
			"bufferView":8,
			"componentType":5126,
			"count":64,
			"type":"VEC2"
		},
		{
			"bufferView":9,
			"componentType":5121,
			"count":64,
			"normalized":true,
			"type":"VEC4"
		},
		{
			"bufferView":10,
			"componentType":5123,
			"count":64,
			"normalized":true,
			"type":"VEC4"
		},
		{
			"bufferView":11,
			"componentType":5123,
			"count":93,
			"type":"SCALAR"
		},
		{
			"bufferView":12,
			"componentType":5126,
			"count":31,
			"max":[
				5.808300018310547,
				-0.7950632572174072,
				4.611616611480713
			],
			"min":[
				-0.0252543818205595,
				-1,
				-0.06266772001981735
			],
			"type":"VEC3"
		},
		{
			"bufferView":13,
			"componentType":5126,
			"count":31,
			"type":"VEC3"
		},
		{
			"bufferView":14,
			"componentType":5126,
			"count":31,
			"type":"VEC2"
		},
		{
			"bufferView":15,
			"componentType":5121,
			"count":31,
			"normalized":true,
			"type":"VEC4"
		},
		{
			"bufferView":16,
			"componentType":5123,
			"count":31,
			"normalized":true,
			"type":"VEC4"
		},
		{
			"bufferView":17,
			"componentType":5123,
			"count":51,
			"type":"SCALAR"
		},
		{
			"bufferView":18,
			"componentType":5126,
			"count":12,
			"max":[
				11.240260124206543,
				1.9565372467041016,
				11.014328002929688
			],
			"min":[
				6.38416862487793,
				0.16489863395690918,
				3.760579824447632
			],
			"type":"VEC3"
		},
		{
			"bufferView":19,
			"componentType":5126,
			"count":12,
			"type":"VEC3"
		},
		{
			"bufferView":20,
			"componentType":5126,
			"count":12,
			"type":"VEC2"
		},
		{
			"bufferView":21,
			"componentType":5121,
			"count":12,
			"normalized":true,
			"type":"VEC4"
		},
		{
			"bufferView":22,
			"componentType":5123,
			"count":12,
			"normalized":true,
			"type":"VEC4"
		},
		{
			"bufferView":23,
			"componentType":5123,
			"count":18,
			"type":"SCALAR"
		},
		{
			"bufferView":24,
			"componentType":5126,
			"count":13,
			"max":[
				10.79808235168457,
				0.6546765565872192,
				-2.987588405609131
			],
			"min":[
				3.5505762100219727,
				-1.004343867301941,
				-9.727612495422363
			],
			"type":"VEC3"
		},
		{
			"bufferView":25,
			"componentType":5126,
			"count":13,
			"type":"VEC3"
		},
		{
			"bufferView":26,
			"componentType":5126,
			"count":13,
			"type":"VEC2"
		},
		{
			"bufferView":27,
			"componentType":5121,
			"count":13,
			"normalized":true,
			"type":"VEC4"
		},
		{
			"bufferView":28,
			"componentType":5123,
			"count":13,
			"normalized":true,
			"type":"VEC4"
		},
		{
			"bufferView":29,
			"componentType":5123,
			"count":21,
			"type":"SCALAR"
		},
		{
			"bufferView":30,
			"componentType":5126,
			"count":76,
			"max":[
				12.207819938659668,
				3.7626423835754395,
				11.820984840393066
			],
			"min":[
				-9.892925262451172,
				-1.004343867301941,
				-10.958388328552246
			],
			"type":"VEC3"
		},
		{
			"bufferView":31,
			"componentType":5126,
			"count":76,
			"type":"VEC3"
		},
		{
			"bufferView":32,
			"componentType":5126,
			"count":76,
			"type":"VEC2"
		},
		{
			"bufferView":33,
			"componentType":5121,
			"count":76,
			"normalized":true,
			"type":"VEC4"
		},
		{
			"bufferView":34,
			"componentType":5123,
			"count":76,
			"normalized":true,
			"type":"VEC4"
		},
		{
			"bufferView":35,
			"componentType":5123,
			"count":108,
			"type":"SCALAR"
		}
	],
	"bufferViews":[
		{
			"buffer":0,
			"byteLength":4488,
			"byteOffset":0,
			"target":34962
		},
		{
			"buffer":0,
			"byteLength":4488,
			"byteOffset":4488,
			"target":34962
		},
		{
			"buffer":0,
			"byteLength":2992,
			"byteOffset":8976,
			"target":34962
		},
		{
			"buffer":0,
			"byteLength":1496,
			"byteOffset":11968,
			"target":34962
		},
		{
			"buffer":0,
			"byteLength":2992,
			"byteOffset":13464,
			"target":34962
		},
		{
			"buffer":0,
			"byteLength":1134,
			"byteOffset":16456,
			"target":34963
		},
		{
			"buffer":0,
			"byteLength":768,
			"byteOffset":17592,
			"target":34962
		},
		{
			"buffer":0,
			"byteLength":768,
			"byteOffset":18360,
			"target":34962
		},
		{
			"buffer":0,
			"byteLength":512,
			"byteOffset":19128,
			"target":34962
		},
		{
			"buffer":0,
			"byteLength":256,
			"byteOffset":19640,
			"target":34962
		},
		{
			"buffer":0,
			"byteLength":512,
			"byteOffset":19896,
			"target":34962
		},
		{
			"buffer":0,
			"byteLength":186,
			"byteOffset":20408,
			"target":34963
		},
		{
			"buffer":0,
			"byteLength":372,
			"byteOffset":20596,
			"target":34962
		},
		{
			"buffer":0,
			"byteLength":372,
			"byteOffset":20968,
			"target":34962
		},
		{
			"buffer":0,
			"byteLength":248,
			"byteOffset":21340,
			"target":34962
		},
		{
			"buffer":0,
			"byteLength":124,
			"byteOffset":21588,
			"target":34962
		},
		{
			"buffer":0,
			"byteLength":248,
			"byteOffset":21712,
			"target":34962
		},
		{
			"buffer":0,
			"byteLength":102,
			"byteOffset":21960,
			"target":34963
		},
		{
			"buffer":0,
			"byteLength":144,
			"byteOffset":22064,
			"target":34962
		},
		{
			"buffer":0,
			"byteLength":144,
			"byteOffset":22208,
			"target":34962
		},
		{
			"buffer":0,
			"byteLength":96,
			"byteOffset":22352,
			"target":34962
		},
		{
			"buffer":0,
			"byteLength":48,
			"byteOffset":22448,
			"target":34962
		},
		{
			"buffer":0,
			"byteLength":96,
			"byteOffset":22496,
			"target":34962
		},
		{
			"buffer":0,
			"byteLength":36,
			"byteOffset":22592,
			"target":34963
		},
		{
			"buffer":0,
			"byteLength":156,
			"byteOffset":22628,
			"target":34962
		},
		{
			"buffer":0,
			"byteLength":156,
			"byteOffset":22784,
			"target":34962
		},
		{
			"buffer":0,
			"byteLength":104,
			"byteOffset":22940,
			"target":34962
		},
		{
			"buffer":0,
			"byteLength":52,
			"byteOffset":23044,
			"target":34962
		},
		{
			"buffer":0,
			"byteLength":104,
			"byteOffset":23096,
			"target":34962
		},
		{
			"buffer":0,
			"byteLength":42,
			"byteOffset":23200,
			"target":34963
		},
		{
			"buffer":0,
			"byteLength":912,
			"byteOffset":23244,
			"target":34962
		},
		{
			"buffer":0,
			"byteLength":912,
			"byteOffset":24156,
			"target":34962
		},
		{
			"buffer":0,
			"byteLength":608,
			"byteOffset":25068,
			"target":34962
		},
		{
			"buffer":0,
			"byteLength":304,
			"byteOffset":25676,
			"target":34962
		},
		{
			"buffer":0,
			"byteLength":608,
			"byteOffset":25980,
			"target":34962
		},
		{
			"buffer":0,
			"byteLength":216,
			"byteOffset":26588,
			"target":34963
		}
	],
	"samplers":[
		{
			"magFilter":9729,
			"minFilter":9987
		}
	],
	"buffers":[
		{
			"byteLength":26804,
			"uri":"Ground.bin"
		}
	]
}
